<?xml version="1.0" encoding="UTF-8"?>
<svg id="Layer_2" data-name="Layer 2" xmlns="http://www.w3.org/2000/svg" viewBox="0 0 669.72 647.44">
  <defs>
    <style>
      .cls-1 {
        fill: #ffc5ae;
      }

      .cls-2, .cls-3, .cls-4, .cls-5, .cls-6, .cls-7, .cls-8 {
        fill: none;
      }

      .cls-9 {
        fill: #302721;
      }

      .cls-10 {
        fill: #ffa37d;
      }

      .cls-3 {
        stroke: #fbeedd;
        stroke-width: 7px;
      }

      .cls-3, .cls-4, .cls-5, .cls-6, .cls-7, .cls-8 {
        stroke-miterlimit: 10;
      }

      .cls-11 {
        fill: #d07a5f;
      }

      .cls-12 {
        fill: #e19479;
      }

      .cls-13 {
        fill: #e09275;
      }

      .cls-14 {
        fill: #ef9352;
      }

      .cls-15 {
        fill: #383130;
      }

      .cls-16 {
        fill: #f78b95;
      }

      .cls-4 {
        stroke-width: 2px;
      }

      .cls-4, .cls-5, .cls-6 {
        stroke: #c66148;
      }

      .cls-4, .cls-5, .cls-6, .cls-7, .cls-8 {
        stroke-linecap: round;
      }

      .cls-17 {
        fill: #f7e6e0;
      }

      .cls-18 {
        fill: #ffbbb6;
      }

      .cls-19 {
        fill: #fbeedd;
      }

      .cls-20 {
        fill: #2d3b4f;
      }

      .cls-21 {
        letter-spacing: 0em;
      }

      .cls-22 {
        fill: #ae9df4;
      }

      .cls-23 {
        fill: #ffcd71;
      }

      .cls-24 {
        fill: #484c56;
      }

      .cls-25 {
        fill: #22201c;
      }

      .cls-5, .cls-8 {
        stroke-width: 3.27px;
      }

      .cls-26 {
        fill: #fff;
      }

      .cls-6 {
        stroke-width: 2.9px;
      }

      .cls-27 {
        fill: #f1abc3;
      }

      .cls-28 {
        fill: #cece7b;
      }

      .cls-29 {
        fill: #c7b6ff;
      }

      .cls-30 {
        fill: #ffd185;
      }

      .cls-31 {
        fill: #ffac9f;
      }

      .cls-32 {
        fill: #f6c37c;
      }

      .cls-33 {
        fill: #fbfbf9;
      }

      .cls-7 {
        stroke: #3f3f35;
        stroke-width: 3.27px;
      }

      .cls-34 {
        fill: #ffde99;
      }

      .cls-35 {
        letter-spacing: -.02em;
      }

      .cls-36 {
        letter-spacing: -.05em;
      }

      .cls-37 {
        letter-spacing: 0em;
      }

      .cls-38 {
        letter-spacing: -.01em;
      }

      .cls-39 {
        fill: #68418c;
        font-family: Nunito-Regular, Nunito;
        font-size: 18px;
      }

      .cls-40 {
        fill: #444750;
      }

      .cls-8 {
        stroke: #211b19;
      }
    </style>
  </defs>
  <g id="Layer_1-2" data-name="Layer 1">
    <g>
      <path class="cls-28" d="M538.79,528.13c-2,3.86-4.42,7.42-7.23,10.64-4.89-3.87-9.65-7.04-13.76-9.71-57.22-37.15-129.36-66.81-155.42-77.17-5.16-2.1-10.34-4.21-15.5-6.31,1.01-4.92,2.66-9.69,5.03-14.25,19.07-36.8,76.35-44.96,127.95-18.23,51.6,26.73,77.99,78.23,58.93,115.02Z"/>
      <g>
        <circle class="cls-28" cx="416.95" cy="404.44" r="36.33"/>
        <circle class="cls-28" cx="523.24" cy="459.5" r="36.33"/>
      </g>
      <circle class="cls-26" cx="419.6" cy="404.1" r="25.19"/>
      <ellipse class="cls-20" cx="419.6" cy="404.1" rx="17.19" ry="18.68" transform="translate(-161.22 359.33) rotate(-39.51)"/>
      <circle class="cls-26" cx="526.96" cy="456.43" r="25.19"/>
      <ellipse class="cls-20" cx="526.96" cy="456.43" rx="17.19" ry="18.68" transform="translate(-169.99 439.6) rotate(-39.51)"/>
      <path class="cls-7" d="M479.08,447.45c-3.48,6.72-12.31,9.06-19.72,5.23-7.41-3.84-10.59-12.4-7.11-19.12"/>
      <path class="cls-18" d="M405.49,457.99c-1.87,3.58-4.48,6.51-7.58,8.69-15.04-6.54-27.47-11.59-35.52-14.78-.82-.33-1.64-.67-2.46-1-.87-5.04-.16-10.4,2.38-15.29,6.17-11.92,20.85-16.58,32.78-10.4,11.94,6.17,16.58,20.85,10.41,32.78Z"/>
      <path class="cls-18" d="M529.33,522.13c-2,3.83-4.86,6.92-8.22,9.13-1.14-.78-2.24-1.5-3.3-2.19-11.01-7.16-22.6-14.03-34.29-20.54.3-2.97,1.16-5.95,2.62-8.77,6.17-11.94,20.85-16.58,32.78-10.41,11.92,6.19,16.58,20.87,10.41,32.78Z"/>
    </g>
    <g>
      <path class="cls-30" d="M189.11,493.04c17.01,40.76-10.3,90.95-60.99,112.1-50.69,21.15-105.57,5.25-122.58-35.51-17.01-40.76,6.01-101.23,56.7-122.38,50.69-21.15,109.86,5.03,126.87,45.79Z"/>
      <g>
        <ellipse class="cls-9" cx="63.89" cy="531.24" rx="9.67" ry="11.03" transform="translate(-199.64 65.57) rotate(-22.65)"/>
        <ellipse class="cls-9" cx="120.78" cy="507.5" rx="9.67" ry="11.03" transform="translate(-186.11 85.65) rotate(-22.65)"/>
      </g>
      <ellipse class="cls-14" cx="100.57" cy="539.1" rx="21.1" ry="17.58" transform="translate(-199.84 80.3) rotate(-22.65)"/>
      <rect class="cls-30" x="50.29" y="424.83" width="12.74" height="40.95" rx="6.37" ry="6.37" transform="translate(-167.11 56.16) rotate(-22.65)"/>
      <rect class="cls-30" x="66.37" y="422.39" width="12.74" height="40.95" rx="6.37" ry="6.37" transform="translate(-14.42 2.61) rotate(-1.87)"/>
      <circle class="cls-31" cx="43.89" cy="569.57" r="23.87"/>
      <circle class="cls-31" cx="164.7" cy="519.16" r="23.87"/>
    </g>
    <rect class="cls-19" x="384.14" y="226.79" width="16.45" height="11.02" rx="5.51" ry="5.51" transform="translate(810.15 414.96) rotate(172.99)"/>
    <path class="cls-2" d="M477.56,527.86c-.05-.74-.09-1.51-.14-2.26"/>
    <path class="cls-2" d="M475.86,498.2c-.07-.88-.12-1.79-.16-2.68"/>
    <rect class="cls-19" x="385.31" y="226.79" width="16.45" height="11.02" rx="5.51" ry="5.51" transform="translate(812.49 414.82) rotate(172.99)"/>
    <path class="cls-13" d="M322.72,324.82c0,15.33-12.42,27.75-27.75,27.75s-27.61-12.28-27.74-27.5c1.73-.34,3.47-.67,5.2-1.01,8.05-.12,16.09-.23,24.14-.35,8.04.12,16.09.23,24.14.35.67.13,1.33.26,2,.39.01.12.01.25.01.37Z"/>
    <path class="cls-26" d="M437.31,437.57c-3.02,2.04-6.05,4.07-9.07,6.11-12.69,8.55-25.39,17.11-38.09,25.66-1.17.79-2.35,1.58-3.52,2.37-5.81-16.99-11.63-33.98-17.44-50.97.07-.25.14-.51.21-.76-.12-.3-.24-.6-.37-.9-.01.04-.03.07-.04.11-1.64-12.56-3.28-25.13-4.91-37.68h-135.89c-1.13,13.07-2.27,26.15-3.4,39.23-5.82,16.99-11.63,33.98-17.45,50.97-1.39-.93-2.77-1.87-4.16-2.8-12.71-8.56-25.41-17.13-38.13-25.69-2.79-1.88-5.59-3.77-8.39-5.65,13.92-28.46,27.83-56.94,41.74-85.4,1.5-3.06,2.99-6.11,4.49-9.17t.01-.02h0c1.34-1.92,3.07-3.87,5.3-5.6,4.77-3.69,9.85-4.78,15.9-6.08,4.37-.93,10.85-1.9,18.89-1.52,8.09-1.56,16.16-3.14,24.24-4.71.13,15.22,12.49,27.5,27.74,27.5s27.75-12.42,27.75-27.75c0-.12,0-.25-.01-.37,9.14,1.78,18.29,3.56,27.43,5.33,8.05-.38,14.52.59,18.89,1.52,6.06,1.3,11.13,2.39,15.91,6.08,2.58,2,4.48,4.29,5.88,6.47.09-.29.17-.59.25-.88,15.42,31.53,30.83,63.07,46.24,94.6Z"/>
    <path class="cls-40" d="M249.24,370.59c-7.02,1.08-14.03,2.17-21.05,3.25,3.78-18.13,9.55-32.98,14.8-44.06,5.08-.98,10.16-1.97,15.24-2.96-2.8,8.51-5.38,18.3-7.17,29.24-.83,5.07-1.42,9.92-1.82,14.53Z"/>
    <path class="cls-40" d="M343.01,370.74l21.03,3.1c-3.78-18.13-9.55-32.98-14.8-44.06-5.08-.98-10.16-1.97-15.24-2.96,2.71,8.24,5.33,18.05,7.17,29.24,1.08,6.6,1.45,8.91,1.84,14.68Z"/>
    <path class="cls-17" d="M202.89,343c-1.5,3.06-2.99,6.11-4.49,9.17.15-.37.29-.74.43-1.11.63-1.7,1.79-4.82,4.06-8.06Z"/>
    <path class="cls-12" d="M165.05,443.22c12.72,8.56,25.42,17.13,38.13,25.69-10.4,24.59-20.88,49.14-31.44,73.66-16.7-2.58-29.9-13.59-33.08-27.36-3.01-13.03,3.76-25.1,4.56-26.49,2.87-4.96,6.32-8.31,8.74-10.33,5.16-13.08,9.47-24.76,13.09-35.17Z"/>
    <path class="cls-12" d="M454.48,515.21c-3.18,13.77-16.38,24.78-33.08,27.36-10.5-24.37-20.92-48.79-31.25-73.23,12.7-8.55,25.4-17.11,38.09-25.66,3.6,10.3,7.86,21.82,12.94,34.71,2.42,2.02,5.87,5.37,8.74,10.33.8,1.39,7.56,13.46,4.56,26.49Z"/>
    <path class="cls-34" d="M505.28,120.23h-58.75c-10.16-15.24-22.97-28.56-37.76-39.31-25.46-18.53-56.82-29.45-90.77-29.45s-65.3,10.93-90.77,29.45c-38.57,28.05-63.61,73.53-63.61,124.93,0,15.24,2.2,29.96,6.31,43.85h-53.09c-3.06-14.13-4.67-28.8-4.67-43.85,0-68.52,33.39-129.18,84.82-166.57C230.94,14.57,272.76,0,318,0s87.07,14.57,121.03,39.26c28.49,20.72,51.44,48.58,66.25,80.97Z"/>
    <circle class="cls-15" cx="167.49" cy="240.45" r="56.61"/>
    <circle class="cls-15" cx="405.13" cy="232.3" r="56.61"/>
    <rect class="cls-12" x="272.43" y="306.6" width="45.08" height="34.29"/>
    <path class="cls-11" d="M317.51,306.6v9c-6.03,5.27-13.91,8.46-22.54,8.46s-16.51-3.19-22.54-8.46v-9h45.08Z"/>
    <path class="cls-12" d="M291.5,129.79c-.03.28-.07.55-.11.83-.05-.28-.08-.56-.11-.84.07,0,.15,0,.22,0v.02Z"/>
    <path class="cls-12" d="M286.94,145.88c-5.8,18.81-19.72,37.68-40.74,52.66-17.64,12.56-37.64,20.51-57.17,23.71v-.48c0-1.86.05-3.7.15-5.53.22-4.12.68-8.18,1.38-12.16,20.5-1.65,42.11-8.45,60.84-20.24,17.28-10.89,29.36-24.31,35.54-37.96Z"/>
    <path class="cls-12" d="M393.54,221.77v.99c-20.57-2.81-41.85-10.93-60.51-24.22-24.37-17.38-39.19-40.01-42.87-61.68.56-2.09.97-4.17,1.23-6.24,2.35,18.54,16.25,38.27,39.97,53.22,18.67,11.77,40.2,18.55,60.65,20.22,1.01,5.75,1.53,11.67,1.53,17.71Z"/>
    <path class="cls-15" d="M291.5,129.77v.02c-.03.28-.07.55-.11.83-.05-.28-.08-.56-.11-.84.07,0,.15,0,.22,0Z"/>
    <path class="cls-12" d="M393.54,222.76v8.55c0,46.87-38,84.87-84.87,84.87h-34.78c-10.09,0-19.76-1.76-28.74-4.99-19.95-7.18-36.43-21.63-46.26-40.15-6.29-11.85-9.86-25.38-9.86-39.73v-9.06c19.53-3.2,39.53-11.15,57.17-23.71,21.02-14.98,34.94-33.85,40.74-52.66,1.32-4.26,2.22-8.51,2.69-12.72.14,1.23.31,2.46.53,3.7,3.68,21.67,18.5,44.3,42.87,61.68,18.66,13.29,39.94,21.41,60.51,24.22Z"/>
    <path class="cls-15" d="M398.9,223.38c-1.78-.16-3.57-.37-5.36-.62-20.57-2.81-41.85-10.93-60.51-24.22-24.37-17.38-39.19-40.01-42.87-61.68-.22-1.24-.39-2.47-.53-3.7.04-.35.08-.68.11-1.02v-.03c-.07,0-.16,0-.23.02.03.34.06.68.12,1.03-.47,4.21-1.37,8.46-2.69,12.72-5.8,18.81-19.72,37.68-40.74,52.66-17.64,12.56-37.64,20.51-57.17,23.71-2.99.5-5.96.88-8.91,1.15,8.93-57.95,52.98-102.27,106.42-103.85.99-.03,1.98-.04,2.97-.04,1.05,0,2.09.01,3.13.05,29.42.92,55.98,14.79,75.4,36.74,15.8,17.88,26.85,41.11,30.86,67.08Z"/>
    <path class="cls-15" d="M291.5,129.79c-.03.28-.07.55-.11.83-.05-.28-.08-.56-.11-.84.07,0,.15,0,.22.01Z"/>
    <path class="cls-3" d="M281.61,238.86c2.6-.74,6.34-1.49,10.86-1.37,3.6.1,6.64.72,8.92,1.37"/>
    <path class="cls-6" d="M304.48,272.9c0,7.17-5.82,12.99-12.99,12.99s-12.99-5.82-12.99-12.99"/>
    <path class="cls-4" d="M286.42,261.94c0-2.8,2.27-5.07,5.07-5.07s5.07,2.27,5.07,5.07"/>
    <path class="cls-16" d="M334.48,300.12c0,3.89.67,7.61,1.91,11.07,19.95-7.18,36.43-21.63,46.26-40.15-4.57-2.41-9.78-3.78-15.31-3.78-18.15,0-32.86,14.72-32.86,32.86Z"/>
    <path class="cls-8" d="M323.96,183.61c.91-.85,5.63-5.07,12.82-4.84,6.47.2,10.65,3.88,11.68,4.84"/>
    <path class="cls-25" d="M312.92,245.9c-1.21-11.73,2.96-24.52,13.06-31.39,10.71-7.39,26.33-7.16,36.45,1.37,5.3,4.45,8.68,10.12,10.9,16.43.71,2.1,1.24,4.27,1.59,6.46l-15.64,1.61c-.34-12.08-7.84-21.44-20.48-20.94-11.75.39-19.53,10.22-21.5,21.26-.35,1.64-.39,3.32-.53,5.01l-3.85.18h0Z"/>
    <path class="cls-8" d="M230.74,183.61c.91-.85,5.63-5.07,12.82-4.84,6.47.2,10.65,3.88,11.68,4.84"/>
    <g>
      <g>
        <circle class="cls-12" cx="185.68" cy="251.27" r="31.94"/>
        <path class="cls-11" d="M199.74,268.24c-1.36.34-2.78.52-4.25.52-9.66,0-17.49-7.83-17.49-17.49,0-3.43.99-6.62,2.69-9.32,1.64.94,3.32,2.06,4.99,3.39,10.15,8.12,13.18,18.9,14.06,22.9Z"/>
        <path class="cls-5" d="M167.49,237.25c3.79.64,11.11,2.43,18.19,8.09,10.63,8.5,13.44,19.91,14.17,23.42"/>
        <path class="cls-23" d="M185.39,269.03l1.91,3.8c.32.65.94,1.09,1.66,1.2l4.21.64c1.81.28,2.53,2.5,1.23,3.79l-3.03,2.99c-.51.51-.75,1.23-.63,1.95l.69,4.2c.3,1.81-1.59,3.18-3.22,2.34l-3.78-1.95c-.64-.33-1.4-.33-2.05,0l-3.78,1.95c-1.63.84-3.52-.53-3.22-2.34l.69-4.2c.12-.71-.12-1.44-.63-1.95l-3.03-2.99c-1.3-1.29-.58-3.51,1.23-3.79l4.21-.64c.71-.11,1.33-.56,1.66-1.2l1.91-3.8c.82-1.64,3.16-1.64,3.98,0Z"/>
      </g>
      <g>
        <g>
          <circle class="cls-12" cx="396.88" cy="251.27" r="31.94"/>
          <path class="cls-11" d="M382.83,268.24c1.36.34,2.78.52,4.25.52,9.66,0,17.49-7.83,17.49-17.49,0-3.43-.99-6.62-2.69-9.32-1.64.94-3.32,2.06-4.99,3.39-10.15,8.12-13.18,18.9-14.06,22.9Z"/>
          <path class="cls-5" d="M415.08,237.25c-3.79.64-11.11,2.43-18.19,8.09-10.63,8.5-13.44,19.91-14.17,23.42"/>
        </g>
        <path class="cls-23" d="M398.87,273.24l1.91,3.8c.32.65.94,1.09,1.66,1.2l4.21.64c1.81.28,2.53,2.5,1.23,3.79l-3.03,2.99c-.51.51-.75,1.23-.63,1.95l.69,4.2c.3,1.81-1.59,3.18-3.22,2.34l-3.78-1.95c-.64-.33-1.4-.33-2.05,0l-3.78,1.95c-1.63.84-3.52-.53-3.22-2.34l.69-4.2c.12-.71-.12-1.44-.63-1.95l-3.03-2.99c-1.3-1.29-.58-3.51,1.23-3.79l4.21-.64c.71-.11,1.33-.56,1.66-1.2l1.91-3.8c.82-1.64,3.16-1.64,3.98,0Z"/>
      </g>
    </g>
    <path class="cls-25" d="M266.09,245.9c-.32-9.4-4.76-19.79-13.46-24.07-7.56-3.78-17.82-2.8-23.55,3.6-3.47,3.93-5.45,9.8-5.51,15.13,0,0-15.64-1.61-15.64-1.61,2.5-15.71,14.21-29.52,30.98-29.56,15.41-.34,27.81,10.34,30.5,25.29.79,3.73.9,7.63.53,11.4,0,0-3.85-.18-3.85-.18h0Z"/>
    <path class="cls-33" d="M314.16,253.65c3.5,11.9,13.53,19.48,25.96,19.14,8.44-.24,15.99-4.23,21.46-10.21,2.84-4.42,4.71-9.49,5.28-14.74.06-.52.11-1.05.14-1.58.24-2.97.18-6.04-.39-8.94-1.11-5.71-3.54-9.96-5.24-12.46-6.88-10.12-21.17-12.73-32.12-7.99-4.09,1.77-7.45,4.55-10.03,7.95-.01.01-.01.02-.02.03-6.04,7.94-7.86,19.23-5.04,28.8Z"/>
    <ellipse class="cls-25" cx="331.93" cy="247.06" rx="18.95" ry="22.86"/>
    <path class="cls-16" d="M245.39,300.12c0,3.89-.67,7.61-1.91,11.07-19.95-7.18-36.43-21.63-46.26-40.15,4.57-2.41,9.78-3.78,15.31-3.78,18.15,0,32.86,14.72,32.86,32.86Z"/>
    <polygon class="cls-33" points="334.48 243.69 359.16 229.44 359.16 257.94 334.48 243.69"/>
    <circle class="cls-3" cx="345.11" cy="242.07" r="43.72"/>
    <path class="cls-33" d="M268.83,253.65c-3.5,11.9-13.53,19.48-25.96,19.14-8.44-.24-15.99-4.23-21.46-10.21-2.84-4.42-4.71-9.49-5.28-14.74-.06-.52-.11-1.05-.14-1.58-.24-2.97-.18-6.04.39-8.94,1.11-5.71,3.54-9.96,5.24-12.46,6.88-10.12,21.17-12.73,32.12-7.99,4.09,1.77,7.45,4.55,10.03,7.95.01.01.01.02.02.03,6.04,7.94,7.86,19.23,5.04,28.8Z"/>
    <ellipse class="cls-25" cx="251.06" cy="247.06" rx="18.95" ry="22.86"/>
    <circle class="cls-3" cx="237.88" cy="242.07" r="43.72"/>
    <rect class="cls-19" x="182.4" y="226.79" width="16.45" height="11.02" rx="5.51" ry="5.51" transform="translate(29.78 -21.53) rotate(7.01)"/>
    <polygon class="cls-33" points="248.51 243.69 223.83 229.44 223.83 257.94 248.51 243.69"/>
    <path class="cls-40" d="M364.25,435.41c-1.39,19.18-2.35,38.97.66,38.97,0,0-137.81,0-137.84,0,6.92,0-1.48-56.95-1.74-64.01-.11-3.07-.31-28.22,2.85-28.86,18.43-3.75,41.6-6.87,68.38-6.84,26.39.03,49.26,3.13,67.51,6.84.38,2.94,2.07,15.89,2.45,18.84.38,2.93-1.1,18.78-2.28,35.06Z"/>
    <path class="cls-24" d="M253.14,406.25h87.7v19.95c0,19.67-15.97,35.65-35.65,35.65h-16.4c-19.67,0-35.65-15.97-35.65-35.65v-19.95h0Z"/>
    <g>
      <path class="cls-29" d="M669.52,505.43c-.79,8.2-3.8,14.58-5.47,17.71-58.17,15.86-116.33,31.72-174.5,47.58-16.51-11.76-33.02-23.51-49.54-35.26-1.65-1.09-2.02-3.05-1.25-4.15.77-1.12,2.46-.99,2.53-.99.69.51,1.35.99,2.04,1.49,13.46,9.8,26.95,19.6,40.43,29.4,1.31.96,3.14.07,3.2-1.56.16-3.86.16-8.05-.06-12.47-.22-3.87-.58-7.51-1.04-10.89-.43-.34-.89-.65-1.33-.97-14.05-10.32-28.06-20.64-42.14-30.94-.78-.58-1.58-1.16-2.36-1.73-.73-.53-1.46-1.08-2.2-1.61-.4-1.69-.83-3.35-1.26-5.03,15.66,11.4,31.32,22.83,46.98,34.24,60.67-15.55,121.35-31.12,182.02-46.66,1.37,2.87,2.76,6.48,3.52,10.76.71,3.95.76,7.67.43,11.08Z"/>
      <path class="cls-33" d="M486.76,563.39c-14.47-10.52-28.96-21.06-43.43-31.58-.31-9.13-.63-18.31-.94-27.43,14.51,10.64,28.98,21.27,43.47,31.91.46,3.38.82,7.02,1.03,10.89.31,5.89.21,11.34-.13,16.22Z"/>
      <path class="cls-27" d="M663.31,561.41c-56.72,15.89-113.18,32.61-169.9,48.51-16.09-11.74-32.44-24.31-48.54-36.06-1.61-1.08-1.97-3.05-1.22-4.15.75-1.12,2.4-.99,2.47-.99.67.5,1.32.98,1.99,1.49,13.13,9.78,26.27,19.59,39.4,29.37,1.28.95,3.07.06,3.14-1.56.16-3.87.16-8.05-.07-12.48-.21-3.87-.56-7.51-1-10.89-14.12-10.63-28.22-21.26-42.37-31.88-1.47-1.1-2.97-2.23-4.44-3.34-.39-1.68-.81-3.35-1.23-5.03,15.26,11.4,30.52,22.82,45.78,34.22,59.16-15.58,118.32-31.19,177.48-46.77,1.34,2.87,2.69,6.48,3.43,10.76,2.31,13.39-2.61,24.35-4.94,28.79Z"/>
      <path class="cls-33" d="M491.72,602.68c-14.47-10.67-28.96-21.37-43.42-32.05-.3-9.27-.63-18.58-.93-27.85,14.51,10.79,28.97,21.59,43.46,32.38.46,3.44.82,7.13,1.03,11.06.31,5.98.21,11.51-.14,16.46Z"/>
      <path class="cls-32" d="M662.48,599.69c-55.71,15.92-111.42,31.83-167.13,47.75-15.8-11.74-31.6-23.47-47.4-35.21-1.58-1.08-1.94-3.05-1.2-4.15.74-1.12,2.36-.99,2.43-.99.66.5,1.29.98,1.95,1.49,12.89,9.78,25.79,19.58,38.68,29.36,1.25.95,3.01.06,3.08-1.56.16-3.87.16-8.05-.06-12.48-.2-3.87-.54-7.51-.98-10.89-13.87-10.62-27.71-21.24-41.6-31.87-1.45-1.1-2.91-2.23-4.36-3.33-.39-1.68-.79-3.35-1.2-5.03,14.98,11.39,29.97,22.81,44.95,34.2,58.11-15.61,116.22-31.23,174.33-46.84,1.32,2.87,2.64,6.48,3.37,10.76,2.26,13.39-2.58,24.35-4.86,28.79Z"/>
      <path class="cls-33" d="M493.09,640.18c-14.46-10.78-28.95-21.59-43.41-32.37-.3-9.36-.62-18.78-.92-28.14,14.51,10.9,28.97,21.8,43.45,32.71.46,3.47.81,7.2,1.03,11.17.31,6.05.2,11.63-.14,16.64Z"/>
      <path class="cls-22" d="M665.57,483.59c-60.67,15.54-121.35,31.11-182.02,46.66-15.66-11.41-31.32-22.84-46.98-34.24-.23-.78-.77-2.84.12-5.1.32-.83.78-1.47,1.16-1.95,55.77-15.01,111.57-30.01,167.34-45.02,21.62,14.2,38.75,25.45,60.38,39.65Z"/>
      <text class="cls-39" transform="translate(516.23 631.87) rotate(-15.98) scale(.94 .97) skewX(-14.67)"><tspan x="0" y="0">HTML </tspan></text>
      <text class="cls-39" transform="translate(509.62 592.19) rotate(-15.14) scale(.94 .97) skewX(-14.67)"><tspan class="cls-38" x="0" y="0">C</tspan><tspan x="11.9" y="0">SS </tspan></text>
      <text class="cls-39" transform="translate(503.65 553.97) rotate(-15.14) scale(.94 .97) skewX(-14.67)"><tspan x="0" y="0">J</tspan><tspan class="cls-36" x="5.83" y="0">AV</tspan><tspan class="cls-37" x="29.38" y="0">A</tspan><tspan class="cls-21" x="42.39" y="0">SCRI</tspan><tspan class="cls-35" x="82.24" y="0">P</tspan><tspan x="93.29" y="0">T </tspan></text>
    </g>
    <path class="cls-1" d="M464.57,457.07l-.21,1.37c-1.43-5.96-6.79-10.53-13.37-10.53H142.15c-6.57,0-11.94,4.57-13.37,10.53l-.21-1.37c-1.31-8.33,5.15-15.87,13.58-15.87h308.84c8.44,0,14.88,7.54,13.58,15.87Z"/>
    <path class="cls-10" d="M464.36,458.44l-7.95,50.95-13.78,88.22-4.77,30.56H155.27l-4.75-30.45-13.82-88.55-7.92-50.73c1.43-5.96,6.8-10.53,13.37-10.53h308.84c6.58,0,11.94,4.57,13.37,10.53Z"/>
    <path class="cls-30" d="M303.01,512.6l6.14,10.56c1.04,1.79,2.89,2.97,4.95,3.15l12.16,1.1c5.23.47,7.69,6.71,4.19,10.63l-8.14,9.1c-1.38,1.54-1.93,3.66-1.47,5.68l2.71,11.91c1.17,5.12-4,9.39-8.81,7.27l-11.17-4.93c-1.9-.84-4.08-.7-5.86.36l-10.48,6.26c-4.51,2.69-10.17-.91-9.63-6.13l1.24-12.15c.21-2.06-.59-4.1-2.15-5.46l-9.19-8.04c-3.96-3.46-2.28-9.95,2.86-11.06l11.94-2.58c2.02-.44,3.71-1.83,4.53-3.73l4.8-11.23c2.07-4.83,8.76-5.24,11.4-.7Z"/>
  </g>
</svg>